<svg xmlns="http://www.w3.org/2000/svg" xmlns:osb="http://www.openswatchbook.org/uri/2009/osb" xmlns:svg="http://www.w3.org/2000/svg" id="svg8805" width="744.094" height="1052.362" version="1.1"><defs id="defs8807"><linearGradient id="linearGradient5359" osb:paint="solid"><stop id="stop5361" offset="0" style="stop-color:red;stop-opacity:1"/></linearGradient></defs><metadata id="metadata8810"/><g style="display:inline" id="layer1"><g id="g4823"><rect id="rect3093" width="143.743" height="456.61" x="360.128" y="507.862" style="fill:none;stroke:#00f;stroke-width:.40926766;stroke-miterlimit:4;stroke-dasharray:none;stroke-opacity:1"/><circle style="fill:none;stroke:#00f;stroke-width:.35433072;stroke-miterlimit:4;stroke-dasharray:none;stroke-opacity:1" id="path3097" cx="387" cy="519.112" r="5.625"/><circle id="path3099" cx="387" cy="953.362" r="5.625" style="fill:none;stroke:#00f;stroke-width:.35433072;stroke-miterlimit:4;stroke-dasharray:none;stroke-opacity:1"/><circle id="circle5419" cx="477" cy="519.112" r="5.625" style="fill:none;stroke:#00f;stroke-width:.35433072;stroke-miterlimit:4;stroke-dasharray:none;stroke-opacity:1"/><circle style="fill:none;stroke:#00f;stroke-width:.35433072;stroke-miterlimit:4;stroke-dasharray:none;stroke-opacity:1" id="circle5421" cx="477" cy="953.362" r="5.625"/></g><path id="path5597" d="m 512.8001,519.25692 0,434.10928" style="fill:none;fill-rule:evenodd;stroke:#000;stroke-width:.99983793px;stroke-linecap:butt;stroke-linejoin:miter;stroke-opacity:1"/><path style="fill:none;fill-rule:evenodd;stroke:#000;stroke-width:.90562814px;stroke-linecap:butt;stroke-linejoin:miter;stroke-opacity:1" id="path4830" d="m 522,570.53443 0,356.15551"/></g><g style="display:inline" id="layer3"><ellipse style="display:inline;fill:none;stroke:#00f;stroke-width:.35433072;stroke-miterlimit:4;stroke-dasharray:none;stroke-opacity:1" id="ellipse4420" cx="432" cy="899.362" rx="10.673" ry="10.673"/><ellipse style="display:inline;fill:none;stroke:#00f;stroke-width:.35433072;stroke-miterlimit:4;stroke-dasharray:none;stroke-opacity:1" id="ellipse4422" cx="387" cy="836.362" rx="12.248" ry="12.248"/><ellipse id="ellipse5434" cx="387" cy="899.362" rx="10.673" ry="10.673" style="display:inline;fill:none;stroke:#00f;stroke-width:.35433072;stroke-miterlimit:4;stroke-dasharray:none;stroke-opacity:1"/><ellipse id="ellipse5436" cx="459" cy="764.362" rx="12.248" ry="12.248" style="display:inline;fill:none;stroke:#00f;stroke-width:.35433072;stroke-miterlimit:4;stroke-dasharray:none;stroke-opacity:1"/><ellipse style="display:inline;fill:none;stroke:#00f;stroke-width:.35433072;stroke-miterlimit:4;stroke-dasharray:none;stroke-opacity:1" id="ellipse5438" cx="432" cy="656.362" rx="12.248" ry="12.248"/><ellipse id="ellipse5430" cx="477" cy="899.362" rx="10.673" ry="10.673" style="display:inline;fill:none;stroke:#00f;stroke-width:.35433072;stroke-miterlimit:4;stroke-dasharray:none;stroke-opacity:1"/><ellipse style="display:inline;fill:none;stroke:#00f;stroke-width:.35433072;stroke-miterlimit:4;stroke-dasharray:none;stroke-opacity:1" id="ellipse5432" cx="317.25" cy="699.112" rx="10.673" ry="10.673"/><ellipse id="ellipse5435" cx="333" cy="595.612" rx="12.248" ry="12.248" style="display:inline;fill:none;stroke:#00f;stroke-width:.35433072;stroke-miterlimit:4;stroke-dasharray:none;stroke-opacity:1"/><circle style="display:inline;fill:none;stroke:#00f;stroke-width:.35433072;stroke-miterlimit:4;stroke-dasharray:none;stroke-opacity:1" id="ellipse5441" cx="308.25" cy="669.862" r="5.209"/><circle id="circle4834" cx="490.5" cy="584.362" r="5.209" style="display:inline;fill:none;stroke:#00f;stroke-width:.35433072;stroke-miterlimit:4;stroke-dasharray:none;stroke-opacity:1"/><circle style="display:inline;fill:none;stroke:#00f;stroke-width:.35433072;stroke-miterlimit:4;stroke-dasharray:none;stroke-opacity:1" id="circle4836" cx="373.5" cy="584.362" r="5.209"/><circle id="circle4945" cx="373.5" cy="728.362" r="5.209" style="display:inline;fill:none;stroke:#00f;stroke-width:.35433072;stroke-miterlimit:4;stroke-dasharray:none;stroke-opacity:1"/><ellipse id="ellipse4949" cx="432" cy="836.362" rx="12.248" ry="12.248" style="display:inline;fill:none;stroke:#00f;stroke-width:.35433072;stroke-miterlimit:4;stroke-dasharray:none;stroke-opacity:1"/><ellipse style="display:inline;fill:none;stroke:#00f;stroke-width:.35433072;stroke-miterlimit:4;stroke-dasharray:none;stroke-opacity:1" id="ellipse4584" cx="477" cy="836.362" rx="10.673" ry="10.673"/></g><g style="display:inline" id="layer4"><path id="path11004" d="m 364.5,935.36218 135,0" style="fill:none;stroke:red;stroke-width:.41376916;stroke-miterlimit:4;stroke-dasharray:none;stroke-opacity:1"/><path id="path11006" d="m 364.5,534.86218 22.5,0" style="fill:none;stroke:red;stroke-width:.35433072;stroke-miterlimit:4;stroke-dasharray:none;stroke-opacity:1"/><text id="text5487" x="535.646" y="610.215" xml:space="preserve" style="font-style:normal;font-variant:normal;font-weight:400;font-stretch:normal;font-size:20px;line-height:125%;font-family:'My Underwood';-inkscape-font-specification:'My Underwood';letter-spacing:0;word-spacing:0;fill:#000;fill-opacity:1;stroke:none;stroke-width:1px;stroke-linecap:butt;stroke-linejoin:miter;stroke-opacity:1"><tspan id="tspan5489" x="535.646" y="610.215">My Underwood 16pt</tspan></text><text style="font-style:normal;font-variant:normal;font-weight:400;font-stretch:normal;font-size:15px;line-height:125%;font-family:'My Underwood';-inkscape-font-specification:'My Underwood';letter-spacing:0;word-spacing:0;fill:#000;fill-opacity:1;stroke:none;stroke-width:1px;stroke-linecap:butt;stroke-linejoin:miter;stroke-opacity:1" id="text5491" x="535.614" y="632.542" xml:space="preserve"><tspan id="tspan5493" x="535.614" y="632.542">My Underwood 12pt</tspan></text><text id="text5495" x="536.033" y="654.288" xml:space="preserve" style="font-style:normal;font-variant:normal;font-weight:400;font-stretch:normal;font-size:12.5px;line-height:125%;font-family:'My Underwood';-inkscape-font-specification:'My Underwood';letter-spacing:0;word-spacing:0;fill:#000;fill-opacity:1;stroke:none;stroke-width:1px;stroke-linecap:butt;stroke-linejoin:miter;stroke-opacity:1"><tspan id="tspan5497" x="536.033" y="654.288">My Underwood 10pt</tspan></text><path id="path5515" d="m 572.63435,791.32257 0,9 2.25,4.5" style="fill:none;fill-rule:evenodd;stroke:red;stroke-width:.35433072;stroke-linecap:butt;stroke-linejoin:miter;stroke-miterlimit:4;stroke-dasharray:none;stroke-opacity:1"/><path id="path5519" d="m 570.42975,793.5236 0,9 -2.25,4.5 0,0 0,0" style="fill:none;fill-rule:evenodd;stroke:red;stroke-width:.35433072;stroke-linecap:butt;stroke-linejoin:miter;stroke-miterlimit:4;stroke-dasharray:none;stroke-opacity:1"/><path id="path5521" d="m 560.88324,798.11218 12.23352,0" style="fill:none;fill-rule:evenodd;stroke:red;stroke-width:.35433072;stroke-linecap:butt;stroke-linejoin:miter;stroke-miterlimit:4;stroke-dasharray:none;stroke-opacity:1"/><path style="fill:none;stroke:red;stroke-width:.35433072;stroke-miterlimit:4;stroke-dasharray:none;stroke-opacity:1" id="path5539" d="m 477,534.86218 22.5,0"/><g id="text4844" transform="translate(-116.10689,-39.634816)" style="font-style:normal;font-variant:normal;font-weight:400;font-stretch:normal;font-size:12.5px;line-height:125%;font-family:'My Underwood';-inkscape-font-specification:'My Underwood';letter-spacing:0;word-spacing:0;fill:#000;fill-opacity:1;stroke:none;stroke-width:1px;stroke-linecap:butt;stroke-linejoin:miter;stroke-opacity:1"><path id="path4363" d="m 417.48502,917.39203 2.58789,0 0,0.8728 -1.46485,0 0,9.39942 1.46485,0 0,0.8728 -2.58789,0 0,-11.14502 z"/><path id="path4365" d="m 426.83111,920.4391 q 0.0375,0.3625 0.0875,0.7375 0.05,0.3625 0.075,0.725 0.0375,0.35 0.025,0.675 0,0.3125 -0.075,0.5625 -0.0875,-0.1 -0.2875,-0.225 -0.2,-0.125 -0.375,-0.125 0.3125,0.2125 0.55,0.575 0.2375,0.3625 0.35,0.8 0.1125,0.4375 0.0875,0.9 -0.025,0.4625 -0.2375,0.8625 -0.2,0.1625 -0.4125,0.25 -0.2125,0.075 -0.4,0.1625 -0.1875,0.075 -0.35,0.2 -0.15,0.125 -0.225,0.3625 -0.4875,-0.0875 -1.0125,-0.225 -0.5125,-0.1375 -1.025,-0.2375 -0.5,-0.1 -0.975,-0.1125 -0.475,-0.025 -0.875,0.1375 -0.1625,-0.1375 -0.175,-0.2625 -0.0125,-0.125 0.0375,-0.2375 0.0625,-0.125 0.1375,-0.225 0.075,-0.1125 0.0875,-0.2125 0.025,-0.1 -0.0625,-0.1875 -0.075,-0.0875 -0.35,-0.1625 l 0.225,0 0.1,-0.875 q 0.2625,-0.075 0.4625,0.025 0.2,0.0875 0.3625,0.275 0.1625,0.1875 0.3,0.4125 0.1375,0.225 0.3,0.4125 0.1625,0.175 0.3625,0.275 0.2,0.1 0.4625,0.0125 0.2875,0.125 0.5125,0.1 0.225,-0.025 0.425,-0.1 0.2125,-0.0875 0.425,-0.1875 0.2125,-0.1 0.4875,-0.1375 -0.05,-0.125 0,-0.225 0.05,-0.1 0.1375,-0.175 0.1,-0.0875 0.2,-0.15 0.1125,-0.0625 0.1875,-0.1 -0.15,-0.3625 -0.4,-0.5375 -0.25,-0.1875 -0.55,-0.275 -0.2875,-0.0875 -0.6,-0.125 -0.3125,-0.05 -0.5875,-0.1375 -0.2,0.125 -0.45,0.075 -0.2375,-0.0625 -0.4875,-0.175 -0.25,-0.125 -0.5125,-0.25 -0.2625,-0.1375 -0.5,-0.175 -0.325,-0.25 -0.4,-0.55 -0.0625,-0.3 0,-0.6125 0.0625,-0.3125 0.1875,-0.625 0.1375,-0.3125 0.2125,-0.6 0.35,-0.2625 0.7,-0.3625 0.35,-0.1125 0.7,-0.125 0.35,-0.0125 0.7125,0.05 0.3625,0.05 0.75,0.1125 0.3875,0.05 0.8,0.075 0.4125,0.0125 0.875,-0.0625 z m -2.5,0.8375 q -0.2,0.0375 -0.45,0.1125 -0.2375,0.075 -0.45,0.2 -0.2125,0.125 -0.3625,0.325 -0.1375,0.1875 -0.1375,0.4625 0.25,0.0375 0.6625,0.1625 0.4125,0.1125 0.825,0.2 0.425,0.0875 0.7875,0.1125 0.375,0.0125 0.525,-0.1625 0.075,-0.3 0.025,-0.475 -0.0375,-0.1875 -0.175,-0.2875 -0.125,-0.1125 -0.3125,-0.175 -0.175,-0.0625 -0.3625,-0.1125 -0.175,-0.0625 -0.3375,-0.1375 -0.15,-0.0875 -0.2375,-0.225 z"/><path id="path4367" d="m 433.08052,921.6516 q 0,0.9875 -0.0625,1.8625 -0.0625,0.875 -0.1125,1.7 -0.05,0.825 -0.0625,1.6375 0,0.8 0.125,1.6625 0.1125,0.0875 0.1625,0.2125 0.0625,0.1375 0.125,0.25 0.0625,0.1125 0.1625,0.175 0.1,0.075 0.3125,0.0375 l 0.2125,-0.225 q 0.05,0.0875 0.125,0.15 0.075,0.075 0.125,0.1375 0.0625,0.075 0.0875,0.1625 0.0375,0.0875 -0.0125,0.2125 -0.4125,0.2375 -0.875,0.25 -0.45,0.025 -0.9,-0.0375 -0.45,-0.0625 -0.8625,-0.1375 -0.4125,-0.0625 -0.75,0.0125 -0.1375,-0.275 -0.125,-0.4 0.0125,-0.1125 0.1,-0.15 0.0875,-0.0375 0.225,-0.0375 0.15,0 0.2875,-0.05 0.15,-0.0375 0.2625,-0.1625 0.1125,-0.125 0.1375,-0.4 l 0.425,0.225 q 0.075,-0.2 0.0875,-0.4625 0.0125,-0.25 0,-0.5 0,-0.25 -0.0125,-0.4875 0,-0.225 0.0375,-0.4 -0.4125,0.2 -0.875,0.3875 -0.45,0.2 -0.9,0.2625 -0.45,0.075 -0.8625,-0.0625 -0.4125,-0.1375 -0.725,-0.5875 -0.45,-0.5375 -0.7,-1.15 -0.25,-0.625 -0.3125,-1.275 -0.05,-0.65 0.0875,-1.3125 0.15,-0.6625 0.475,-1.275 0.4875,-0.375 1.0875,-0.5625 0.6125,-0.1875 1.2375,-0.2 0.6375,-0.025 1.225,0.1125 0.5875,0.1375 1.0375,0.425 z m -3.2875,0.875 q -0.25,0.25 -0.4625,0.55 -0.2125,0.3 -0.3375,0.65 -0.1125,0.35 -0.125,0.7375 -0.0125,0.375 0.1625,0.7875 0.25,0.25 0.5125,0.525 0.275,0.275 0.5625,0.475 0.2875,0.1875 0.5875,0.25 0.3125,0.05 0.6375,-0.15 l 0,-0.5625 q 0.35,-0.05 0.5125,-0.1875 0.1625,-0.15 0.2,-0.3625 0.05,-0.2125 0.0125,-0.475 -0.0375,-0.2625 -0.0875,-0.5375 -0.0375,-0.2875 -0.0625,-0.575 -0.0125,-0.3 0.075,-0.575 -0.2,-0.25 -0.475,-0.4375 -0.275,-0.2 -0.575,-0.2875 -0.3,-0.0875 -0.6,-0.05 -0.2875,0.025 -0.5375,0.225 z"/><path id="path4369" d="m 435.24693,921.1766 q 0,-0.35 0.1625,-0.55 0.175,-0.2125 0.4375,-0.2875 0.275,-0.0875 0.6,-0.0625 0.3375,0.025 0.6625,0.1375 0.325,0.1 0.6,0.275 0.275,0.175 0.4375,0.3875 0.975,-0.725 1.825,-0.675 0.85,0.05 1.7375,0.775 0.1625,0.2125 0.175,0.425 0.025,0.2 0,0.425 -0.0125,0.225 -0.025,0.475 -0.0125,0.2375 0.075,0.5125 -0.25,0.05 -0.4875,0.1 -0.2375,0.0375 -0.4625,0.0375 -0.225,-0.0125 -0.425,-0.1125 -0.1875,-0.1 -0.35,-0.35 l -0.4375,-0.85 q -0.575,0.075 -1.0625,0.45 -0.4875,0.375 -0.6625,0.95 0.0375,0.25 0,0.575 -0.0375,0.325 -0.05,0.6875 -0.0125,0.3625 0.0625,0.7375 0.075,0.3625 0.325,0.6875 0.1625,0 0.4125,0.0125 0.2625,0.0125 0.5125,0.075 0.25,0.05 0.4375,0.1875 0.2,0.1375 0.2375,0.375 -0.1125,0.2875 -0.35,0.3375 -0.225,0.0625 -0.4875,0.05 -0.2625,-0.0125 -0.5375,-0.0125 -0.2625,0 -0.4625,0.1625 -0.325,-0.125 -0.7,-0.1375 -0.375,0 -0.775,0 -0.3875,0 -0.7875,-0.05 -0.3875,-0.0375 -0.7375,-0.25 -0.125,-0.1125 -0.075,-0.25 0.0625,-0.1375 0.1875,-0.25 0.1375,-0.125 0.2875,-0.225 0.1625,-0.1 0.2375,-0.1375 0.2,0.1625 0.2875,0.125 0.0875,-0.05 0.15,-0.15 0.075,-0.1 0.175,-0.175 0.1125,-0.0875 0.3625,-0.0125 0.1625,-0.4875 0.2125,-0.975 0.05,-0.4875 0.0375,-0.9625 -0.0125,-0.4875 -0.0625,-0.9625 -0.0375,-0.4875 -0.075,-0.9625 -0.1125,-0.1125 -0.275,-0.125 -0.15,-0.025 -0.325,0 -0.1625,0.0125 -0.3375,0.0375 -0.175,0.025 -0.325,0 -0.1375,-0.025 -0.2375,-0.125 -0.1,-0.1 -0.125,-0.35 z"/><path id="path4371" d="m 446.14102,917.39203 0,11.14502 -2.58789,0 0,-0.8728 1.45874,0 0,-9.39942 -1.45874,0 0,-0.8728 2.58789,0 z"/></g><g id="text4848" transform="translate(-162.78364,-14.94697)" style="font-style:normal;font-variant:normal;font-weight:400;font-stretch:normal;font-size:12.5px;line-height:125%;font-family:'My Underwood';-inkscape-font-specification:'My Underwood';letter-spacing:0;word-spacing:0;fill:#000;fill-opacity:1;stroke:none;stroke-width:1px;stroke-linecap:butt;stroke-linejoin:miter;stroke-opacity:1"><path id="path4352" d="m 463.87711,917.00861 2.58789,0 0,0.8728 -1.46485,0 0,9.39941 1.46485,0 0,0.87281 -2.58789,0 0,-11.14502 z"/><path id="path4354" d="m 470.1857,917.89318 q 0.075,0.3625 0.15,0.7625 0.075,0.3875 0.225,0.7125 0.15,0.325 0.4125,0.525 0.2625,0.2 0.7125,0.1625 0.325,-0.175 0.6875,-0.125 0.375,0.0375 0.6125,0.4375 0,0.125 -0.075,0.225 -0.0625,0.1 -0.175,0.1875 -0.1,0.0875 -0.2125,0.175 -0.1,0.075 -0.175,0.1625 -0.1375,-0.1625 -0.3625,-0.2125 -0.225,-0.05 -0.4875,-0.025 -0.2625,0.0125 -0.5375,0.0875 -0.2625,0.0625 -0.475,0.15 0,0.4875 -0.0875,0.9875 -0.0875,0.5 -0.1375,0.9875 -0.05,0.4875 0,0.95 0.05,0.45 0.3375,0.8625 0.2,0.1625 0.4,0.2125 0.2125,0.0375 0.4,0.0125 0.2,-0.0375 0.375,-0.125 0.175,-0.1 0.3375,-0.2125 0.25,-0.2375 0.325,-0.5 0.0875,-0.275 0.175,-0.5125 0.0875,-0.25 0.2375,-0.4375 0.1625,-0.2 0.5625,-0.275 0.1625,0.3625 0.2,0.625 0.0375,0.2625 0.025,0.5125 0,0.2375 -0.025,0.5 -0.025,0.2625 0.025,0.625 -0.2,0.2 -0.5375,0.45 -0.325,0.2375 -0.7125,0.425 -0.375,0.1875 -0.7875,0.2875 -0.4125,0.1 -0.7625,0.025 -0.325,-0.1625 -0.6375,-0.3875 -0.3125,-0.225 -0.55,-0.5 -0.225,-0.2875 -0.35,-0.625 -0.125,-0.35 -0.075,-0.75 -0.0625,-0.275 -0.0375,-0.6 0.025,-0.3375 0.0625,-0.675 0.05,-0.35 0.0625,-0.6875 0.025,-0.3375 -0.0375,-0.6125 -0.0625,-0.2875 -0.25,-0.4875 -0.1875,-0.2125 -0.5625,-0.3 -0.1625,0.0875 -0.3125,0.1125 -0.15,0.025 -0.225,0.1125 l -0.1,-0.975 q 0.475,0.1875 0.75,0.1125 0.2875,-0.0875 0.45,-0.3125 0.1625,-0.2375 0.25,-0.5625 0.0875,-0.325 0.1875,-0.6375 0.1125,-0.3125 0.2625,-0.55 0.1625,-0.25 0.4625,-0.3 z"/><path id="path4356" d="m 474.53453,920.79318 q 0,-0.35 0.1625,-0.55 0.175,-0.2125 0.4375,-0.2875 0.275,-0.0875 0.6,-0.0625 0.3375,0.025 0.6625,0.1375 0.325,0.1 0.6,0.275 0.275,0.175 0.4375,0.3875 0.975,-0.725 1.825,-0.675 0.85,0.05 1.7375,0.775 0.1625,0.2125 0.175,0.425 0.025,0.2 0,0.425 -0.0125,0.225 -0.025,0.475 -0.0125,0.2375 0.075,0.5125 -0.25,0.05 -0.4875,0.1 -0.2375,0.0375 -0.4625,0.0375 -0.225,-0.0125 -0.425,-0.1125 -0.1875,-0.1 -0.35,-0.35 l -0.4375,-0.85 q -0.575,0.075 -1.0625,0.45 -0.4875,0.375 -0.6625,0.95 0.0375,0.25 0,0.575 -0.0375,0.325 -0.05,0.6875 -0.0125,0.3625 0.0625,0.7375 0.075,0.3625 0.325,0.6875 0.1625,0 0.4125,0.0125 0.2625,0.0125 0.5125,0.075 0.25,0.05 0.4375,0.1875 0.2,0.1375 0.2375,0.375 -0.1125,0.2875 -0.35,0.3375 -0.225,0.0625 -0.4875,0.05 -0.2625,-0.0125 -0.5375,-0.0125 -0.2625,0 -0.4625,0.1625 -0.325,-0.125 -0.7,-0.1375 -0.375,0 -0.775,0 -0.3875,0 -0.7875,-0.05 -0.3875,-0.0375 -0.7375,-0.25 -0.125,-0.1125 -0.075,-0.25 0.0625,-0.1375 0.1875,-0.25 0.1375,-0.125 0.2875,-0.225 0.1625,-0.1 0.2375,-0.1375 0.2,0.1625 0.2875,0.125 0.0875,-0.05 0.15,-0.15 0.075,-0.1 0.175,-0.175 0.1125,-0.0875 0.3625,-0.0125 0.1625,-0.4875 0.2125,-0.975 0.05,-0.4875 0.0375,-0.9625 -0.0125,-0.4875 -0.0625,-0.9625 -0.0375,-0.4875 -0.075,-0.9625 -0.1125,-0.1125 -0.275,-0.125 -0.15,-0.025 -0.325,0 -0.1625,0.0125 -0.3375,0.0375 -0.175,0.025 -0.325,0 -0.1375,-0.025 -0.2375,-0.125 -0.1,-0.1 -0.125,-0.35 z"/><path id="path4358" d="m 483.81363,918.49318 q 0.125,-0.0375 0.35,-0.1 0.2375,-0.0625 0.4625,-0.05 0.225,0.0125 0.375,0.1375 0.1625,0.125 0.125,0.45 0.0375,0.1125 0,0.25 -0.0375,0.125 -0.125,0.25 -0.0875,0.125 -0.2,0.225 -0.1125,0.1 -0.2375,0.1375 -0.2125,-0.0875 -0.425,-0.2125 -0.2125,-0.125 -0.3625,-0.2875 -0.1375,-0.1625 -0.15,-0.3625 -0.0125,-0.2 0.1875,-0.4375 z m -0.7625,1.725 q 0.1375,0.1125 0.3375,0.125 0.2,0 0.4125,-0.025 0.225,-0.025 0.45,-0.05 0.225,-0.025 0.4,0.025 0.1875,0.05 0.3125,0.2 0.125,0.15 0.1625,0.4625 -0.05,0.6 -0.0375,1.15 0.0125,0.5375 0.075,1.075 0.0625,0.525 0.15,1.0625 0.1,0.5375 0.225,1.1375 0.1625,0.1625 0.45,0.1875 0.3,0.025 0.575,0.0625 0.2875,0.0375 0.4875,0.1875 0.2125,0.1375 0.2125,0.5375 -0.65,0.0875 -1.2875,0.1875 -0.625,0.1 -1.2625,0.15 -0.6375,0.05 -1.2875,0.0125 -0.65,-0.0375 -1.3375,-0.2375 -0.125,-0.125 -0.1375,-0.2625 0,-0.1375 0.05,-0.2625 0.0625,-0.1375 0.175,-0.25 0.1125,-0.125 0.2375,-0.2 0.4,0.325 0.8,0.2125 0.4125,-0.125 0.8,-0.525 0.175,-0.975 0.1625,-1.875 0,-0.9125 -0.25,-1.8 l -1.8375,-0.325 q -0.125,-0.3625 -0.05,-0.5 0.075,-0.1375 0.25,-0.1875 0.175,-0.05 0.3875,-0.075 0.2125,-0.0375 0.375,-0.2 z"/><path id="path4360" d="m 491.38565,917.00861 0,11.14502 -2.58789,0 0,-0.87281 1.45874,0 0,-9.39941 -1.45874,0 0,-0.8728 2.58789,0 z"/></g><g id="text4852" transform="translate(-62.38948,-42.248974)" style="font-style:normal;font-variant:normal;font-weight:400;font-stretch:normal;font-size:12.5px;line-height:125%;font-family:'My Underwood';-inkscape-font-specification:'My Underwood';letter-spacing:0;word-spacing:0;fill:#000;fill-opacity:1;stroke:none;stroke-width:1px;stroke-linecap:butt;stroke-linejoin:miter;stroke-opacity:1"><path id="path4374" d="m 376.67347,918.28074 q 0.725,-0.1625 1.35,0.0125 0.6375,0.1625 1.125,0.4 0.05,0.25 0.15,0.475 0.1,0.225 0.1625,0.45 0.075,0.2125 0.075,0.45 0,0.225 -0.1625,0.4625 -0.125,0.25 -0.2875,0.275 -0.1625,0.025 -0.3375,-0.025 -0.1625,-0.0625 -0.3375,-0.15 -0.175,-0.1 -0.3375,-0.1 -0.1625,-0.1625 -0.175,-0.3 -0.0125,-0.15 0.0375,-0.275 0.05,-0.1375 0.125,-0.2625 0.0875,-0.125 0.1,-0.2375 0.025,-0.1125 -0.0625,-0.2125 -0.075,-0.1125 -0.3375,-0.2125 l -1.2,0.3125 q 0.0375,0.125 0.075,0.3375 0.0375,0.2 0.1,0.425 0.075,0.2125 0.2,0.425 0.1375,0.2 0.375,0.3125 -0.1625,0.175 -0.3125,0.2125 -0.1375,0.0375 -0.275,0.0375 -0.1375,0 -0.2875,0 -0.1375,0 -0.3,0.0875 -0.125,0.6 -0.1875,1.075 -0.0625,0.475 -0.0625,0.925 0,0.4375 0.0625,0.9125 0.0625,0.475 0.1875,1.0875 0.2375,0.15 0.55,0.2125 0.325,0.05 0.6,0.1375 0.2875,0.075 0.475,0.25 0.2,0.175 0.2,0.575 -0.525,0.1625 -1.1,0.2375 -0.575,0.0875 -1.175,0.0875 -0.5875,0 -1.1875,-0.0875 -0.6,-0.075 -1.1625,-0.2375 l 0.325,-0.8625 q 0.1125,0.0375 0.225,0.1125 0.125,0.0625 0.25,0.1 0.125,0.0375 0.2375,0.025 0.125,-0.0125 0.2375,-0.1375 0.375,-0.3625 0.45,-0.8125 0.0875,-0.45 0.0375,-0.9625 -0.05,-0.5125 -0.15,-1.0625 -0.1,-0.5625 -0.1,-1.125 -0.1,-0.1375 -0.2875,-0.2 -0.175,-0.0625 -0.3625,-0.0875 -0.1875,-0.0375 -0.375,-0.075 -0.1875,-0.0375 -0.3125,-0.1125 -0.1125,-0.0875 -0.15,-0.25 -0.0375,-0.175 0.075,-0.475 0.0875,-0.075 0.225,-0.1875 0.1375,-0.1125 0.3125,-0.025 0.0875,0.1125 0.2375,0.125 0.15,0.0125 0.325,-0.05 0.175,-0.075 0.3375,-0.2 0.175,-0.1375 0.2875,-0.3 0.075,-0.25 0.2,-0.5125 0.125,-0.275 0.3125,-0.4875 0.1875,-0.225 0.425,-0.3625 0.25,-0.15 0.575,-0.15 z"/><path id="path4376" d="m 381.43792,923.89324 q 0.3375,-0.0375 0.6375,0.05 0.3,0.0875 0.525,0.275 0.2375,0.1875 0.3875,0.45 0.1625,0.25 0.2,0.525 0,0.4125 -0.3,0.775 -0.2875,0.35 -0.6875,0.5125 -0.325,0.175 -0.6375,0.1375 -0.3,-0.025 -0.575,-0.175 -0.275,-0.1625 -0.4875,-0.425 -0.2125,-0.275 -0.325,-0.5875 -0.175,-0.2875 -0.0625,-0.5 0.125,-0.2125 0.3625,-0.3875 0.25,-0.175 0.525,-0.325 0.2875,-0.15 0.4375,-0.325 z"/><path id="path4378" d="m 384.53577,920.84324 q 0.3,-0.35 0.7,-0.55 0.4125,-0.2 0.85,-0.25 0.45,-0.0625 0.9,0.025 0.45,0.0875 0.8375,0.3 0.4,0.2125 0.7,0.5625 0.3,0.3375 0.4375,0.8 0.0375,0.2375 0,0.4875 -0.0375,0.25 -0.1625,0.4625 -0.125,0.2 -0.3375,0.3375 -0.2,0.125 -0.475,0.125 -0.375,-0.025 -0.55,-0.225 -0.1625,-0.2125 -0.225,-0.4875 -0.0625,-0.275 -0.1,-0.5625 -0.025,-0.3 -0.125,-0.525 -0.1,-0.225 -0.3375,-0.3125 -0.2375,-0.1 -0.725,0.0375 -0.3625,0.2125 -0.6625,0.55 -0.3,0.3375 -0.5,0.7625 -0.1875,0.425 -0.2375,0.9125 -0.0375,0.4875 0.125,1.0125 0.325,0.575 0.7875,0.85 0.475,0.275 1.0375,0.4375 0.325,0 0.625,-0.1625 0.3,-0.1625 0.5625,-0.4125 0.2625,-0.25 0.475,-0.55 0.225,-0.3 0.3875,-0.5875 0.325,0.075 0.4125,0.3125 0.0875,0.225 0.0625,0.5 -0.0125,0.275 -0.0875,0.5375 -0.0625,0.25 -0.0625,0.3625 -0.25,0.2875 -0.5625,0.525 -0.3125,0.2375 -0.675,0.3875 -0.3625,0.15 -0.7625,0.2 -0.4,0.0625 -0.8,-0.025 -0.525,-0.0375 -0.8375,-0.2875 -0.3125,-0.25 -0.5375,-0.5875 -0.225,-0.35 -0.425,-0.725 -0.1875,-0.375 -0.4625,-0.6625 0,-0.4125 -0.0375,-0.9 -0.025,-0.5 0.0125,-1 0.0375,-0.5 0.2,-0.9375 0.175,-0.4375 0.575,-0.7375 z"/><path id="path4380" d="m 394.75823,920.31824 q 0.2,0.125 0.475,0.1125 0.2875,-0.025 0.5625,-0.025 0.2875,0 0.525,0.1 0.25,0.1 0.375,0.4625 -0.625,0.2125 -0.9875,0.6 -0.35,0.375 -0.5625,0.8625 -0.2125,0.475 -0.325,1.0375 -0.1125,0.5625 -0.25,1.15 -0.125,0.575 -0.325,1.1375 -0.2,0.55 -0.575,1.0375 -0.325,0.1625 -0.55,0.1375 -0.225,-0.0125 -0.3875,-0.15 -0.15,-0.1375 -0.25,-0.3625 -0.1,-0.225 -0.1875,-0.475 -0.075,-0.25 -0.1625,-0.4875 -0.075,-0.2375 -0.175,-0.4 -0.1875,-0.2875 -0.3,-0.675 -0.1125,-0.3875 -0.2125,-0.8 -0.0875,-0.4125 -0.2,-0.8 -0.1125,-0.4 -0.3125,-0.725 -0.2,-0.325 -0.525,-0.525 -0.325,-0.2125 -0.825,-0.25 l 0,-0.625 q 0.3625,-0.0875 0.9,-0.2125 0.5375,-0.125 1.075,-0.125 0.5375,-0.0125 0.975,0.2 0.4375,0.2 0.5875,0.7625 -0.15,0 -0.2625,0.0875 -0.1,0.0875 -0.1875,0.2125 -0.0875,0.125 -0.1625,0.2625 -0.0625,0.125 -0.1375,0.2125 0.0875,0.1 0.1375,0.275 0.05,0.175 0.1,0.3625 0.05,0.175 0.1125,0.3375 0.0625,0.1625 0.1625,0.25 0.1125,0.075 0.2625,0.05 0.1625,-0.025 0.4125,-0.2125 0.2125,-0.2375 0.2125,-0.55 0,-0.325 -0.075,-0.6625 -0.075,-0.3375 -0.15,-0.65 -0.075,-0.325 -0.0125,-0.55 0.0625,-0.2375 0.325,-0.35 0.275,-0.1125 0.9,-0.0375 z"/></g><path id="path4927" d="m 569.27595,836.36218 4.5,4.5 9,-9 9,9 4.5,-4.5 0,0 0,0" style="fill:none;fill-rule:evenodd;stroke:red;stroke-width:.35433072;stroke-linecap:butt;stroke-linejoin:miter;stroke-miterlimit:4;stroke-dasharray:none;stroke-opacity:1"/><path id="path4933" d="m 537.75,825.11218 4.5,0 0,-9 4.5,0 0,9 4.5,0 0,-9 4.5,0 0,9 4.5,0 0,-9 4.5,0" style="fill:none;fill-rule:evenodd;stroke:red;stroke-width:.35433072;stroke-linecap:butt;stroke-linejoin:miter;stroke-miterlimit:4;stroke-dasharray:none;stroke-opacity:1"/><path id="path4937" d="m 609.75,825.0236 0,4.5 -22.5,22.5 0,40.5 0,0 0,0 0,0" style="fill:none;fill-rule:evenodd;stroke:red;stroke-width:.35433072;stroke-linecap:butt;stroke-linejoin:miter;stroke-miterlimit:4;stroke-dasharray:none;stroke-opacity:1"/><path id="path4939" d="m 596.25,865.61218 9,0" style="fill:none;fill-rule:evenodd;stroke:red;stroke-width:.35433072;stroke-linecap:butt;stroke-linejoin:miter;stroke-miterlimit:4;stroke-dasharray:none;stroke-opacity:1"/><path style="fill:none;fill-rule:evenodd;stroke:red;stroke-width:.35433072;stroke-linecap:butt;stroke-linejoin:miter;stroke-miterlimit:4;stroke-dasharray:none;stroke-opacity:1" id="path4943" d="m 542.25,834.11218 4.5,4.5 0,-9 9,9 0,-9 9,9 0,-9 4.5,4.5"/><path style="fill:none;fill-rule:evenodd;stroke:red;stroke-width:.35433072;stroke-linecap:butt;stroke-linejoin:miter;stroke-miterlimit:4;stroke-dasharray:none;stroke-opacity:1" id="path4951" d="m 576,773.36218 -4.5,4.5 0,-9 -9,9 0,-9 -9,9 0,-9 -4.5,4.5"/><path id="path4345" d="m 419.27208,849.0901 a 18,18 0 0 1 0,-25.45584 18,18 0 0 1 25.45584,0 18,18 0 0 1 0,25.45584" style="fill:none;fill-opacity:1;stroke:red;stroke-width:.47244096;stroke-miterlimit:4;stroke-dasharray:none;stroke-opacity:1"/><path style="fill:none;fill-opacity:1;stroke:red;stroke-width:.47244096;stroke-miterlimit:4;stroke-dasharray:none;stroke-opacity:1" id="path4347" d="m 374.27208,849.0901 a 18,18 0 0 1 0,-25.45584 18,18 0 0 1 25.45584,0 18,18 0 0 1 0,25.45584"/><g style="stroke:red;stroke-width:1.77165306;stroke-miterlimit:4;stroke-dasharray:none;stroke-opacity:1" id="g4469" transform="matrix(0.20000006,0,0,0.20000006,392.39999,779.7897)"><path style="fill:none;fill-rule:evenodd;stroke:red;stroke-width:1.77165306;stroke-linecap:butt;stroke-linejoin:miter;stroke-miterlimit:4;stroke-dasharray:none;stroke-opacity:1" id="path4463" d="m 153,800.36218 0,90 54,0 0,-9 -45,0 0,-81 z"/><path style="fill:none;fill-rule:evenodd;stroke:red;stroke-width:1.77165306;stroke-linecap:butt;stroke-linejoin:miter;stroke-miterlimit:4;stroke-dasharray:none;stroke-opacity:1" id="path4465" d="m 171,800.36218 0,9 45,0 0,81 9,0 0,-90 z"/><path style="fill:none;fill-rule:evenodd;stroke:red;stroke-width:1.77165306;stroke-linecap:butt;stroke-linejoin:miter;stroke-miterlimit:4;stroke-dasharray:none;stroke-opacity:1" id="path4467" d="m 234,800.36218 0,90 9,0 0,-90 z"/></g><text style="font-style:normal;font-variant:normal;font-weight:400;font-stretch:normal;font-size:12.5px;line-height:125%;font-family:'My Underwood';-inkscape-font-specification:'My Underwood';letter-spacing:0;word-spacing:0;fill:#000;fill-opacity:1;stroke:none;stroke-width:1px;stroke-linecap:butt;stroke-linejoin:miter;stroke-opacity:1" id="text4586" x="555.97" y="729.052" xml:space="preserve"><tspan id="tspan4588" x="555.97" y="729.052">cutoff</tspan></text><text id="text4590" x="444.717" y="806.118" xml:space="preserve" style="font-style:normal;font-variant:normal;font-weight:400;font-stretch:normal;font-size:12.5px;line-height:125%;font-family:'My Underwood';-inkscape-font-specification:'My Underwood';letter-spacing:0;word-spacing:0;fill:#000;fill-opacity:1;stroke:none;stroke-width:1px;stroke-linecap:butt;stroke-linejoin:miter;stroke-opacity:1"><tspan id="tspan4592" x="444.717" y="806.118">peak</tspan></text><text style="font-style:normal;font-variant:normal;font-weight:400;font-stretch:normal;font-size:12.5px;line-height:125%;font-family:'My Underwood';-inkscape-font-specification:'My Underwood';letter-spacing:0;word-spacing:0;fill:#000;fill-opacity:1;stroke:none;stroke-width:1px;stroke-linecap:butt;stroke-linejoin:miter;stroke-opacity:1" id="text4594" x="376.153" y="925.739" xml:space="preserve"><tspan id="tspan4598" x="376.153" y="925.739">CV1</tspan></text><text id="text4602" x="421.012" y="926.122" xml:space="preserve" style="font-style:normal;font-variant:normal;font-weight:400;font-stretch:normal;font-size:12.5px;line-height:125%;font-family:'My Underwood';-inkscape-font-specification:'My Underwood';letter-spacing:0;word-spacing:0;fill:#000;fill-opacity:1;stroke:none;stroke-width:1px;stroke-linecap:butt;stroke-linejoin:miter;stroke-opacity:1"><tspan id="tspan4604" x="421.012" y="926.122">CV2</tspan></text><text style="font-style:normal;font-variant:normal;font-weight:400;font-stretch:normal;font-size:12.5px;line-height:125%;font-family:'My Underwood';-inkscape-font-specification:'My Underwood';letter-spacing:0;word-spacing:0;fill:#000;fill-opacity:1;stroke:none;stroke-width:1px;stroke-linecap:butt;stroke-linejoin:miter;stroke-opacity:1" id="text4606" x="460.502" y="925.739" xml:space="preserve"><tspan id="tspan4608" x="460.502" y="925.739">[OUT]</tspan></text><text id="text4610" x="469.816" y="863.197" xml:space="preserve" style="font-style:normal;font-variant:normal;font-weight:400;font-stretch:normal;font-size:12.5px;line-height:125%;font-family:'My Underwood';-inkscape-font-specification:'My Underwood';letter-spacing:0;word-spacing:0;fill:#000;fill-opacity:1;stroke:none;stroke-width:1px;stroke-linecap:butt;stroke-linejoin:miter;stroke-opacity:1"><tspan id="tspan4612" x="469.816" y="863.197">IN</tspan></text><text id="text4614" x="295.756" y="854.143" xml:space="preserve" style="font-style:normal;font-variant:normal;font-weight:400;font-stretch:normal;font-size:12.5px;line-height:125%;font-family:'My Underwood';-inkscape-font-specification:'My Underwood';letter-spacing:0;word-spacing:0;fill:#000;fill-opacity:1;stroke:none;stroke-width:1px;stroke-linecap:butt;stroke-linejoin:miter;stroke-opacity:1"><tspan id="tspan4616" x="295.756" y="854.143">cv amt</tspan></text><text style="font-style:normal;font-variant:normal;font-weight:400;font-stretch:normal;font-size:20px;line-height:125%;font-family:'My Underwood';-inkscape-font-specification:'My Underwood';letter-spacing:0;word-spacing:0;fill:#000;fill-opacity:1;stroke:none;stroke-width:1px;stroke-linecap:butt;stroke-linejoin:miter;stroke-opacity:1" id="text4618" x="388.117" y="542.92" xml:space="preserve"><tspan id="tspan4620" x="388.117" y="542.92">MS20VCF</tspan></text><text style="font-style:normal;font-variant:normal;font-weight:400;font-stretch:normal;font-size:12.5px;line-height:125%;font-family:'My Underwood';-inkscape-font-specification:'My Underwood';letter-spacing:0;word-spacing:0;fill:#000;fill-opacity:1;stroke:none;stroke-width:1px;stroke-linecap:butt;stroke-linejoin:miter;stroke-opacity:1" id="text4622" x="546.799" y="568.359" xml:space="preserve"><tspan id="tspan4624" x="546.799" y="568.359">2-pole lowpass vcf</tspan></text><text style="font-style:normal;font-variant:normal;font-weight:400;font-stretch:normal;font-size:20px;line-height:125%;font-family:'My Underwood';-inkscape-font-specification:'My Underwood';letter-spacing:0;word-spacing:0;fill:#000;fill-opacity:1;stroke:none;stroke-width:1px;stroke-linecap:butt;stroke-linejoin:miter;stroke-opacity:1" id="text4626" x="399.921" y="724.47" xml:space="preserve"><tspan id="tspan4628" x="399.921" y="724.47">cutoff</tspan></text><path style="fill:none;fill-rule:evenodd;stroke:red;stroke-width:.35433072;stroke-linecap:butt;stroke-linejoin:miter;stroke-miterlimit:4;stroke-dasharray:none;stroke-opacity:1" id="path4632" d="m 560.25,881.36218 -4.5,-6.75 4.5,-4.5 -4.5,-6.75"/><g id="g4636" transform="translate(1.1494155,-4.4999974)"><path style="fill:none;fill-rule:evenodd;stroke:red;stroke-width:.35433072;stroke-linecap:butt;stroke-linejoin:miter;stroke-miterlimit:4;stroke-dasharray:none;stroke-opacity:1" id="path4630" d="m 387,883.61218 -4.5,-6.75 4.5,-4.5 -4.5,-6.75"/><path id="path4634" d="m 389.25,883.61218 -4.5,-6.75 4.5,-4.5 -4.5,-6.75" style="fill:none;fill-rule:evenodd;stroke:red;stroke-width:.35433072;stroke-linecap:butt;stroke-linejoin:miter;stroke-miterlimit:4;stroke-dasharray:none;stroke-opacity:1"/></g><g id="g4640" transform="translate(46.199552,-4.4999974)"><path id="path4642" d="m 387,883.61218 -4.5,-6.75 4.5,-4.5 -4.5,-6.75" style="fill:none;fill-rule:evenodd;stroke:red;stroke-width:.35433072;stroke-linecap:butt;stroke-linejoin:miter;stroke-miterlimit:4;stroke-dasharray:none;stroke-opacity:1"/><path style="fill:none;fill-rule:evenodd;stroke:red;stroke-width:.35433072;stroke-linecap:butt;stroke-linejoin:miter;stroke-miterlimit:4;stroke-dasharray:none;stroke-opacity:1" id="path4644" d="m 389.25,883.61218 -4.5,-6.75 4.5,-4.5 -4.5,-6.75"/></g><text id="text4646" x="431.66" y="558.09" xml:space="preserve" style="font-style:normal;font-variant:normal;font-weight:400;font-stretch:normal;font-size:12.5px;line-height:125%;font-family:'My Underwood';-inkscape-font-specification:'My Underwood';text-align:center;letter-spacing:0;word-spacing:0;text-anchor:middle;fill:#000;fill-opacity:1;stroke:none;stroke-width:1px;stroke-linecap:butt;stroke-linejoin:miter;stroke-opacity:1"><tspan id="tspan4654" x="431.66" y="558.09">12dB lowpass</tspan></text><path id="path4660" d="m 373.58858,743.79607 0,40.95505 49.5,0" style="fill:none;fill-rule:evenodd;stroke:red;stroke-width:.35433072;stroke-linecap:butt;stroke-linejoin:miter;stroke-miterlimit:4;stroke-dasharray:none;stroke-opacity:1"/><path id="path4662" d="m 375.83858,757.75112 24.75,0 4.5,-9 15.75,31.5" style="fill:none;fill-rule:evenodd;stroke:red;stroke-width:.35433072;stroke-linecap:butt;stroke-linejoin:miter;stroke-miterlimit:4;stroke-dasharray:none;stroke-opacity:1"/></g><g style="display:none" id="layer5"><circle style="display:inline;fill:none;stroke:#000;stroke-width:.35433072;stroke-miterlimit:4;stroke-dasharray:none;stroke-opacity:1" id="path3884" cx="459" cy="764.362" r="26.427"/><ellipse id="circle5445" cx="432" cy="656.362" rx="47.516" ry="47.516" style="display:inline;fill:none;stroke:#000;stroke-width:.63709003;stroke-miterlimit:4;stroke-dasharray:none;stroke-opacity:1"/><circle style="display:inline;fill:none;stroke:#000;stroke-width:.35433072;stroke-miterlimit:4;stroke-dasharray:none;stroke-opacity:1" id="circle5447" cx="204.75" cy="593.362" r="26.427"/><circle id="circle5449" cx="202.5" cy="604.612" r="26.427" style="display:inline;fill:none;stroke:#000;stroke-width:.35433072;stroke-miterlimit:4;stroke-dasharray:none;stroke-opacity:1"/><circle style="display:inline;fill:none;stroke:#000;stroke-width:.35433072;stroke-miterlimit:4;stroke-dasharray:none;stroke-opacity:1" id="circle5523" cx="387" cy="899.362" r="16.719"/><circle id="circle5525" cx="373.5" cy="584.362" r="8.765" style="display:inline;fill:none;stroke:#000;stroke-width:.18577147;stroke-miterlimit:4;stroke-dasharray:none;stroke-opacity:1"/><circle style="display:inline;fill:none;stroke:#000;stroke-width:.35433072;stroke-miterlimit:4;stroke-dasharray:none;stroke-opacity:1" id="circle5527" cx="477" cy="899.362" r="16.719"/><circle id="circle5529" cx="432" cy="899.362" r="16.719" style="display:inline;fill:none;stroke:#000;stroke-width:.35433072;stroke-miterlimit:4;stroke-dasharray:none;stroke-opacity:1"/><circle style="display:inline;fill:none;stroke:#000;stroke-width:.18577147;stroke-miterlimit:4;stroke-dasharray:none;stroke-opacity:1" id="circle4838" cx="490.5" cy="584.362" r="8.765"/><circle style="display:inline;fill:none;stroke:#000;stroke-width:.18577147;stroke-miterlimit:4;stroke-dasharray:none;stroke-opacity:1" id="circle4947" cx="373.5" cy="728.362" r="8.765"/><circle id="circle4658" cx="477" cy="836.362" r="16.719" style="display:inline;fill:none;stroke:#000;stroke-width:.35433072;stroke-miterlimit:4;stroke-dasharray:none;stroke-opacity:1"/></g></svg>